<?xml version="1.0" encoding="iso-8859-1"?>
<!DOCTYPE svg PUBLIC "-//W3C//DTD SVG 1.1//EN" "http://www.w3.org/Graphics/SVG/1.1/DTD/svg11.dtd">
<svg 
 version="1.1" xmlns="http://www.w3.org/2000/svg" xmlns:xlink="http://www.w3.org/1999/xlink" x="0px" y="0px" width="512px"
	 height="512px" viewBox="0 0 512 512" enable-background="new 0 0 512 512" xml:space="preserve"
><g id="2020da7681f0d538108a21c6020100fa"><g></g><g fill="#ffffff"><path display="inline" d="M337.619,206.318c-2.523,0-5.019,0.133-7.485,0.341c-18.181-51.856-67.525-89.055-125.587-89.055
		c-70.516,0-128.187,54.859-132.749,124.22c-0.112,0-0.216-0.017-0.324-0.017c-39.198,0-70.974,31.774-70.974,70.969
		c0,39.198,31.775,70.974,70.974,70.974h266.146c48.996,0,88.714-39.718,88.714-88.714
		C426.333,246.036,386.615,206.318,337.619,206.318z M337.619,358.2H71.474c-25.047,0-45.423-20.377-45.423-45.424
		c0-24.78,19.948-44.987,44.629-45.411l0.133,0.009h0.985h23.924l1.572-23.874c3.701-56.27,50.809-100.346,107.252-100.346
		c45.607,0,86.385,28.919,101.477,71.959l6.545,18.668l19.712-1.663c2-0.167,3.746-0.25,5.339-0.25
		c34.828,0,63.164,28.336,63.164,63.168C400.783,329.864,372.447,358.2,337.619,358.2z M279.421,277.292
		c0,7.057-5.718,12.774-12.775,12.774c-19.282,0-40.454,21.171-40.454,40.454c0,7.058-5.718,12.775-12.775,12.775
		c-7.057,0-12.775-5.718-12.775-12.775c0-33.31,32.694-66.004,66.004-66.004C273.703,264.517,279.421,270.234,279.421,277.292z
		 M511.5,181.479c0,40.563-30.27,73.976-69.435,79.087c-2.915-8.8-6.887-17.125-11.811-24.793h1.401
		c29.938,0,54.294-24.356,54.294-54.294s-24.356-54.294-54.294-54.294c-1.389,0-2.878,0.071-4.545,0.212l-19.749,1.701
		l-6.554-18.705c-13.221-37.714-48.954-63.052-88.918-63.052c-36.079,0-67.734,20.605-83.516,50.871
		c-7.806-1.223-15.757-1.9-23.829-1.9c-1.189,0-2.366,0.055-3.551,0.079c17.828-43.747,60.739-74.6,110.896-74.6
		c52.256,0,96.669,33.477,113.029,80.151c2.221-0.191,4.466-0.308,6.736-0.308C475.753,101.636,511.5,137.383,511.5,181.479z
		 M234.708,447.625c0,11.761-9.531,21.292-21.292,21.292s-21.292-9.531-21.292-21.292s9.531-42.583,21.292-42.583
		S234.708,435.864,234.708,447.625z M319.875,468.917c0,11.76-9.531,21.291-21.292,21.291c-11.76,0-21.291-9.531-21.291-21.291
		c0-11.761,9.531-42.584,21.291-42.584C310.344,426.333,319.875,457.156,319.875,468.917z M149.542,468.917
		c0,11.76-9.531,21.291-21.292,21.291s-21.292-9.531-21.292-21.291c0-11.761,9.531-42.584,21.292-42.584
		S149.542,457.156,149.542,468.917z"></path></g></g></svg>