<?xml version="1.0" encoding="iso-8859-1"?>
<!DOCTYPE svg PUBLIC "-//W3C//DTD SVG 1.1//EN" "http://www.w3.org/Graphics/SVG/1.1/DTD/svg11.dtd">
<svg 
 version="1.1" xmlns="http://www.w3.org/2000/svg" xmlns:xlink="http://www.w3.org/1999/xlink" x="0px" y="0px" width="512px"
	 height="512px" viewBox="0 0 512 512" enable-background="new 0 0 512 512" xml:space="preserve"
><g id="2020da7681f0d538108a21c60200fc56"><g></g><g fill="#ffffff"><path display="inline" d="M337.619,203.656c-2.523,0-5.019,0.133-7.485,0.341c-18.181-51.856-67.525-89.055-125.587-89.055
		c-70.516,0-128.187,54.859-132.749,124.22c-0.112,0-0.216-0.017-0.324-0.017c-39.198,0-70.974,31.775-70.974,70.97
		c0,39.198,31.775,70.974,70.974,70.974h120.647l-15.965,18.63l27.945,37.261l-27.945,55.891l74.521-55.891l-27.945-37.261
		l9.315-18.63h105.572c48.996,0,88.714-39.719,88.714-88.714C426.333,243.374,386.615,203.656,337.619,203.656z M337.619,355.538
		H71.474c-25.047,0-45.423-20.376-45.423-45.423c0-24.781,19.948-44.987,44.629-45.411l0.133,0.008h0.985h23.924l1.572-23.874
		c3.701-56.27,50.809-100.346,107.252-100.346c45.607,0,86.385,28.919,101.477,71.959l6.545,18.668l19.712-1.663
		c2-0.167,3.746-0.25,5.339-0.25c34.828,0,63.164,28.337,63.164,63.169C400.783,327.202,372.447,355.538,337.619,355.538z
		 M279.421,274.63c0,7.058-5.718,12.775-12.775,12.775c-19.282,0-40.454,21.171-40.454,40.454c0,7.057-5.718,12.775-12.775,12.775
		c-7.057,0-12.775-5.719-12.775-12.775c0-33.31,32.694-66.004,66.004-66.004C273.703,261.855,279.421,267.573,279.421,274.63z
		 M511.5,178.817c0,40.563-30.27,73.977-69.435,79.087c-2.915-8.8-6.887-17.125-11.811-24.793h1.401
		c29.938,0,54.294-24.356,54.294-54.294s-24.356-54.294-54.294-54.294c-1.389,0-2.878,0.071-4.545,0.212l-19.749,1.701
		l-6.554-18.705c-13.221-37.714-48.954-63.052-88.918-63.052c-36.079,0-67.734,20.605-83.516,50.871
		c-7.806-1.223-15.757-1.9-23.829-1.9c-1.189,0-2.366,0.055-3.551,0.079c17.828-43.747,60.739-74.6,110.896-74.6
		c52.256,0,96.669,33.477,113.029,80.151c2.221-0.191,4.466-0.308,6.736-0.308C475.753,98.974,511.5,134.721,511.5,178.817z"></path></g></g></svg>