<?xml version="1.0" encoding="UTF-8" standalone="no"?>
<svg width="60px" height="60px" viewBox="0 0 60 60" version="1.1" xmlns="http://www.w3.org/2000/svg" xmlns:xlink="http://www.w3.org/1999/xlink" xmlns:sketch="http://www.bohemiancoding.com/sketch/ns">
    <!-- Generator: Sketch 3.2.2 (9983) - http://www.bohemiancoding.com/sketch -->
    <title>Snowflake</title>
    <desc>Created with Sketch.</desc>
    <defs></defs>
    <g id="stroked" stroke="none" stroke-width="1" fill="none" fill-rule="evenodd" sketch:type="MSPage">
        <g id="Weather" sketch:type="MSLayerGroup" transform="translate(-6.000000, -716.000000)" stroke="#ffffff" stroke-width="2">
            <g id="Snowflake" transform="translate(14.000000, 724.000000)" sketch:type="MSShapeGroup">
                <path d="M23,15.1929825 L23,5.76441103" id="Line" stroke-linecap="round" stroke-linejoin="round"></path>
                <path d="M28.3305246,0.715038289 L23,5.52280841 L17.6694754,0.715038289" id="Rectangle-19" stroke-linecap="round" stroke-linejoin="round"></path>
                <g id="Line-+-Rectangle-19" transform="translate(22.966976, 35.692982) rotate(-180.000000) translate(-22.966976, -35.692982) translate(16.966976, 27.192982)" stroke-linecap="round" stroke-linejoin="round">
                    <path d="M5.96697626,14.8917612 L5.96697626,5.46318977" id="Line"></path>
                    <path d="M11.4845368,0.413817027 L5.96697626,5.22158715 L0.449415707,0.413817027" id="Rectangle-19"></path>
                </g>
                <g id="Line-+-Rectangle-24" transform="translate(11.674110, 15.599868) rotate(-60.000000) translate(-11.674110, -15.599868) translate(5.674110, 6.599868)" stroke-linecap="round" stroke-linejoin="round">
                    <path d="M6.35277214,15.4285714 L6.35277214,5.57142857" id="Line"></path>
                    <path d="M11.7752023,0.522055833 L6.35277214,5.32982595 L0.930341941,0.522055833" id="Rectangle-19"></path>
                </g>
                <g id="Line-+-Rectangle-25" transform="translate(34.471809, 28.879345) rotate(-240.000000) translate(-34.471809, -28.879345) translate(28.471809, 19.879345)" stroke-linecap="round" stroke-linejoin="round">
                    <path d="M6.24509804,15.4285714 L6.24509804,5.57142857" id="Line"></path>
                    <path d="M11.5756226,0.522055833 L6.24509804,5.32982595 L0.914573433,0.522055833" id="Rectangle-19"></path>
                </g>
                <g id="Line-+-Rectangle-24" transform="translate(11.773289, 29.303868) rotate(-120.000000) translate(-11.773289, -29.303868) translate(5.773289, 20.303868)" stroke-linecap="round" stroke-linejoin="round">
                    <path d="M6.24509804,15.4285714 L6.24509804,5.57142857" id="Line"></path>
                    <path d="M11.5756226,0.522055833 L6.24509804,5.32982595 L0.914573433,0.522055833" id="Rectangle-19"></path>
                </g>
                <g id="Line-+-Rectangle-25" transform="translate(34.226711, 15.082097) rotate(-300.000000) translate(-34.226711, -15.082097) translate(28.226711, 6.082097)" stroke-linecap="round" stroke-linejoin="round">
                    <path d="M6.24509804,15.4285714 L6.24509804,5.57142857" id="Line"></path>
                    <path d="M11.5756226,0.522055833 L6.24509804,5.32982595 L0.914573433,0.522055833" id="Rectangle-19"></path>
                </g>
                <ellipse id="Oval-218" cx="23" cy="22.1929825" rx="6.24509804" ry="6.57142857"></ellipse>
            </g>
        </g>
    </g>
</svg>