<?xml version="1.0" encoding="iso-8859-1"?>
<!DOCTYPE svg PUBLIC "-//W3C//DTD SVG 1.1//EN" "http://www.w3.org/Graphics/SVG/1.1/DTD/svg11.dtd">
<svg 
 version="1.1" xmlns="http://www.w3.org/2000/svg" xmlns:xlink="http://www.w3.org/1999/xlink" x="0px" y="0px" width="512px"
	 height="512px" viewBox="0 0 512 512" enable-background="new 0 0 512 512" xml:space="preserve"
><g id="2020da7681f0d538108a21c60200385c"><g></g><g fill="#ffffff"><path display="inline" d="M418.591,256c0,89.792-72.799,162.591-162.591,162.591c-89.792,0-162.591-72.799-162.591-162.591
		c0-89.792,72.798-162.591,162.591-162.591C345.792,93.409,418.591,166.208,418.591,256z M256.726,70.182
		c12.375,0,22.501-10.452,22.501-23.227V23.727c0-12.775-10.126-23.227-22.501-23.227c-12.376,0-22.501,10.452-22.501,23.227v23.228
		C234.225,59.729,244.35,70.182,256.726,70.182z M256.726,441.818c-12.376,0-22.501,10.452-22.501,23.228v23.227
		c0,12.775,10.125,23.228,22.501,23.228c12.375,0,22.501-10.452,22.501-23.228v-23.227
		C279.228,452.271,269.102,441.818,256.726,441.818z M46.955,234.225H23.727c-12.775,0-23.227,10.125-23.227,22.501
		c0,12.375,10.452,22.501,23.227,22.501h23.228c12.775,0,23.227-10.126,23.227-22.501C70.182,244.35,59.729,234.225,46.955,234.225z
		 M488.272,234.225h-23.227c-12.775,0-23.228,10.125-23.228,22.501c0,12.375,10.452,22.501,23.228,22.501h23.227
		c12.775,0,23.228-10.126,23.228-22.501C511.5,244.35,501.048,234.225,488.272,234.225z M92.275,123.582
		c9.032,9.032,23.581,9.264,32.332,0.513c8.751-8.756,8.52-23.305-0.512-32.337l-16.432-16.427
		c-9.032-9.033-23.581-9.264-32.332-0.513c-8.751,8.755-8.52,23.304,0.512,32.336L92.275,123.582z M419.725,387.393
		c-9.032-9.032-23.581-9.264-32.332-0.513s-8.52,23.3,0.513,32.337l16.423,16.423c9.032,9.032,23.586,9.264,32.337,0.513
		s8.523-23.3-0.509-32.332L419.725,387.393z M92.275,388.418l-16.432,16.427c-9.032,9.032-9.264,23.581-0.512,32.337
		c8.751,8.751,23.3,8.52,32.332-0.513l16.432-16.427c9.032-9.032,9.264-23.581,0.512-32.337
		C115.856,379.154,101.307,379.386,92.275,388.418z M419.725,124.607l16.432-16.427c9.032-9.032,9.26-23.581,0.509-32.332
		s-23.305-8.52-32.337,0.513l-16.423,16.422c-9.032,9.037-9.264,23.585-0.513,32.336S410.692,133.64,419.725,124.607z"></path></g></g></svg>