<?xml version="1.0" encoding="iso-8859-1"?>
<!DOCTYPE svg PUBLIC "-//W3C//DTD SVG 1.1//EN" "http://www.w3.org/Graphics/SVG/1.1/DTD/svg11.dtd">
<svg 
 version="1.1" xmlns="http://www.w3.org/2000/svg" xmlns:xlink="http://www.w3.org/1999/xlink" x="0px" y="0px" width="512px"
	 height="512px" viewBox="0 0 512 512" enable-background="new 0 0 512 512" xml:space="preserve"
><g id="2020da7681f0d538108a21c602013c98"><g></g><g fill="#ffffff"><path display="inline" d="M117.971,167.896c0-11.354,9.206-20.558,20.558-20.558h176.207c61.369,0,126.282-64.91,126.282-126.281
		c0-11.354,9.206-20.558,20.558-20.558c11.351,0,20.557,9.203,20.557,20.558c0,84.481-82.918,167.396-167.396,167.396H138.529
		C127.177,188.454,117.971,179.251,117.971,167.896z M344.104,323.546H197.265c-11.352,0-20.558,9.206-20.558,20.558
		s9.206,20.558,20.558,20.558h146.839c61.368,0,126.281,64.913,126.281,126.281c0,11.352,9.206,20.558,20.558,20.558
		s20.558-9.206,20.558-20.558C511.5,406.464,428.582,323.546,344.104,323.546z M511.5,256c0-11.352-9.206-20.558-20.558-20.558
		H21.058C9.703,235.442,0.5,244.648,0.5,256s9.203,20.558,20.558,20.558h469.885C502.294,276.558,511.5,267.352,511.5,256z"></path></g></g></svg>